<svg fill="none" height="24" viewBox="0 0 24 24" width="24" xmlns="http://www.w3.org/2000/svg"><g stroke="#292d32" stroke-linecap="round" stroke-linejoin="round" stroke-width="1.5"><path d="m21.6601 10.44-.98 4.18c-.84 3.61-2.5 5.07-5.62 4.77-.5-.04-1.04-.13-1.62-.27l-1.68-.4c-4.17004-.99-5.46004-3.05-4.48004-7.23l.98-4.18999c.2-.85.44-1.59.74-2.2 1.17004-2.42 3.16004-3.07 6.50004-2.28l1.67.39c4.19.98 5.47 3.05 4.49 7.22999z"/><path d="m15.06 19.39c-.62.42-1.4.77-2.35 1.08l-1.58.52c-3.97002 1.28-6.06003.21-7.35003-3.76l-1.28-3.95c-1.28-3.97002-.22-6.07002 3.75-7.35002l1.58-.52c.41-.13.8-.24 1.17-.31-.3.61-.54 1.35-.74 2.2l-.98 4.19002c-.98 4.18.31001 6.24 4.48003 7.23l1.68.4c.58.14 1.12.23 1.62.27z"/><path d="m12.64 8.53003 4.85 1.23"/><path d="m11.66 12.4 2.9.74"/></g></svg>